<svg height="1950" width="720" xmlns="http://www.w3.org/2000/svg">
<rect height="1950" fill="#555" width="720"></rect>
<text fill="#7f7" font-family="Courier New" font-size="12" xml:space="preserve">
<tspan x="10" y="26"></tspan>
<tspan x="10" y="42">&gt; npmdoc-isomorphic-fetch@0.0.3 test /home/travis/build/npmdoc/node-npmdoc-isomorphic-fetch</tspan>
<tspan x="10" y="58">&gt; (set -e; export PORT=$(utility2 shServerPortRandom); utility2 test test.js)</tspan>
<tspan x="10" y="74"></tspan>
<tspan x="10" y="90"></tspan>
<tspan x="10" y="106">[MODE_BUILD=npmTest] - 2017-04-07T18:55:55Z - npm-testing /home/travis/build/npmdoc/node-npmdoc-\</tspan>
<tspan x="10" y="122">isomorphic-fetch</tspan>
<tspan x="10" y="138"></tspan>
<tspan x="10" y="154"></tspan>
<tspan x="10" y="170">covering $ /home/travis/.nvm/versions/node/v7.8.0/bin/node /home/travis/build/npmdoc/node-npmdoc\</tspan>
<tspan x="10" y="186">-isomorphic-fetch/test.js</tspan>
<tspan x="10" y="202">merging file:///home/travis/build/npmdoc/node-npmdoc-isomorphic-fetch/tmp/build/test-report.json\</tspan>
<tspan x="10" y="218"> to test-report</tspan>
<tspan x="10" y="234">&gt; server listening on http-port 45827</tspan>
<tspan x="10" y="250">created apidoc file:///home/travis/build/npmdoc/node-npmdoc-isomorphic-fetch/tmp/build/apidoc.ht\</tspan>
<tspan x="10" y="266">ml</tspan>
<tspan x="10" y="282"></tspan>
<tspan x="10" y="298"></tspan>
<tspan x="10" y="314">browserTest - created electron entry-page /home/travis/build/npmdoc/node-npmdoc-isomorphic-fetch\</tspan>
<tspan x="10" y="330">/tmp/electron.15b49c5df010.6ecfa242e6f22.html</tspan>
<tspan x="10" y="346"></tspan>
<tspan x="10" y="362">[node test-case 1 of 6 passed] - testCase_buildLib_default</tspan>
<tspan x="10" y="378">[node test-case 2 of 6 passed] - testCase_buildReadme_default</tspan>
<tspan x="10" y="394">[node test-case 3 of 6 passed] - testCase_buildTest_default</tspan>
<tspan x="10" y="410"></tspan>
<tspan x="10" y="426">browserTest - created electron entry-page /home/travis/build/npmdoc/node-npmdoc-isomorphic-fetch\</tspan>
<tspan x="10" y="442">/tmp/electron.15b49c5df230.e19e9bf41665f.html</tspan>
<tspan x="10" y="458"></tspan>
<tspan x="10" y="474">(node:4970) DeprecationWarning: node --debug is deprecated. Please use node --inspect instead.</tspan>
<tspan x="10" y="490">Xlib:  extension "RANDR" missing on display ":99.0".</tspan>
<tspan x="10" y="506">Xlib:  extension "RANDR" missing on display ":99.0".</tspan>
<tspan x="10" y="522">&gt; server listening on http-port 45089</tspan>
<tspan x="10" y="538">merging file:///home/travis/build/npmdoc/node-npmdoc-isomorphic-fetch/tmp/build/test-report.json\</tspan>
<tspan x="10" y="554"> to test-report</tspan>
<tspan x="10" y="570">merging file:///home/travis/build/npmdoc/node-npmdoc-isomorphic-fetch/tmp/build/test-report.json\</tspan>
<tspan x="10" y="586"> to test-report</tspan>
<tspan x="10" y="602">Xlib:  extension "RANDR" missing on display ":99.0".</tspan>
<tspan x="10" y="618">Xlib:  extension "RANDR" missing on display ":99.0".</tspan>
<tspan x="10" y="634">[4994:0407/185556:WARNING:audio_manager.cc(314)] Multiple instances of AudioManager detected</tspan>
<tspan x="10" y="650">[4994:0407/185556:WARNING:audio_manager.cc(275)] Multiple instances of AudioManager detected</tspan>
<tspan x="10" y="666">[4995:0407/185556:WARNING:audio_manager.cc(314)] Multiple instances of AudioManager detected</tspan>
<tspan x="10" y="682">[4995:0407/185556:WARNING:audio_manager.cc(275)] Multiple instances of AudioManager detected</tspan>
<tspan x="10" y="698">[5041:0407/185557:ERROR:sandbox_linux.cc(343)] InitializeSandbox() called with multiple threads \</tspan>
<tspan x="10" y="714">in process gpu-process. </tspan>
<tspan x="10" y="730">[4995:0407/185557:ERROR:browser_gpu_channel_host_factory.cc(131)] Failed to create channel.</tspan>
<tspan x="10" y="746">[5051:0407/185557:ERROR:sandbox_linux.cc(343)] InitializeSandbox() called with multiple threads \</tspan>
<tspan x="10" y="762">in process gpu-process. </tspan>
<tspan x="10" y="778">[4994:0407/185557:ERROR:browser_gpu_channel_host_factory.cc(131)] Failed to create channel.</tspan>
<tspan x="10" y="794"></tspan>
<tspan x="10" y="810">browserTest - opened url /home/travis/build/npmdoc/node-npmdoc-isomorphic-fetch/tmp/build/apidoc\</tspan>
<tspan x="10" y="826">.html</tspan>
<tspan x="10" y="842"></tspan>
<tspan x="10" y="858"></tspan>
<tspan x="10" y="874">browserTest - opened url http://127.0.0.1:45827?modeTest=1</tspan>
<tspan x="10" y="890"></tspan>
<tspan x="10" y="906">[4995:0407/185558:INFO:CONSOLE(249)] "----------|-----------|-----------|-----------|-----------\</tspan>
<tspan x="10" y="922">|</tspan>
<tspan x="10" y="938">File      |   % Stmts |% Branches |   % Funcs |   % Lines |</tspan>
<tspan x="10" y="954">----------|-----------|-----------|-----------|-----------|</tspan>
<tspan x="10" y="970">----------|-----------|-----------|-----------|-----------|</tspan>
<tspan x="10" y="986">All files |       100 |       100 |       100 |       100 |</tspan>
<tspan x="10" y="1002">----------|-----------|-----------|-----------|-----------|</tspan>
<tspan x="10" y="1018">", source: file:///home/travis/build/npmdoc/node-npmdoc-isomorphic-fetch/tmp/electron.15b49c5df2\</tspan>
<tspan x="10" y="1034">30.e19e9bf41665f.html (249)</tspan>
<tspan x="10" y="1050">[4995:0407/185558:INFO:CONSOLE(249)] "created coverage file:///tmp/build/coverage.html/index.htm\</tspan>
<tspan x="10" y="1066">l", source: file:///home/travis/build/npmdoc/node-npmdoc-isomorphic-fetch/tmp/electron.15b49c5df\</tspan>
<tspan x="10" y="1082">230.e19e9bf41665f.html (249)</tspan>
<tspan x="10" y="1098">[node test-case 4 of 6 passed] - testCase_buildApp_default</tspan>
<tspan x="10" y="1114"></tspan>
<tspan x="10" y="1130">browserTest - exit-code 1 - /home/travis/build/npmdoc/node-npmdoc-isomorphic-fetch/tmp/build/api\</tspan>
<tspan x="10" y="1146">doc.html</tspan>
<tspan x="10" y="1162"></tspan>
<tspan x="10" y="1178">[node test-case 5 of 6 passed] - testCase_buildApidoc_default</tspan>
<tspan x="10" y="1194"></tspan>
<tspan x="10" y="1210">browserTest - created screenCapture file:///home/travis/build/npmdoc/node-npmdoc-isomorphic-fetc\</tspan>
<tspan x="10" y="1226">h/tmp/build/screenCapture.%2F.png</tspan>
<tspan x="10" y="1242"></tspan>
<tspan x="10" y="1258">browserTest - created screenCapture file:///home/travis/build/npmdoc/node-npmdoc-isomorphic-fetc\</tspan>
<tspan x="10" y="1274">h/tmp/build/screenCapture.%2F.html</tspan>
<tspan x="10" y="1290"></tspan>
<tspan x="10" y="1306">browserTest - exit-code 0 - http://127.0.0.1:45827?modeTest=1</tspan>
<tspan x="10" y="1322"></tspan>
<tspan x="10" y="1338"></tspan>
<tspan x="10" y="1354">browserTest - merged coverage from /home/travis/build/npmdoc/node-npmdoc-isomorphic-fetch/tmp/co\</tspan>
<tspan x="10" y="1370">verage.%2F.json</tspan>
<tspan x="10" y="1386"></tspan>
<tspan x="10" y="1402"></tspan>
<tspan x="10" y="1418">browserTest - merging test-report from /home/travis/build/npmdoc/node-npmdoc-isomorphic-fetch/tm\</tspan>
<tspan x="10" y="1434">p/test-report.%2F.json</tspan>
<tspan x="10" y="1450"></tspan>
<tspan x="10" y="1466">[node test-case 6 of 6 passed] - testCase_webpage_default</tspan>
<tspan x="10" y="1482">-------------------------------------|-----------|-----------|-----------|-----------|</tspan>
<tspan x="10" y="1498">File                                 |   % Stmts |% Branches |   % Funcs |   % Lines |</tspan>
<tspan x="10" y="1514">-------------------------------------|-----------|-----------|-----------|-----------|</tspan>
<tspan x="10" y="1530">   node-npmdoc-isomorphic-fetch/     |       100 |       100 |       100 |       100 |</tspan>
<tspan x="10" y="1546">      example.js                     |       100 |       100 |       100 |       100 |</tspan>
<tspan x="10" y="1562">      lib.npmdoc_isomorphic_fetch.js |       100 |       100 |       100 |       100 |</tspan>
<tspan x="10" y="1578">      test.js                        |       100 |       100 |       100 |       100 |</tspan>
<tspan x="10" y="1594">-------------------------------------|-----------|-----------|-----------|-----------|</tspan>
<tspan x="10" y="1610">All files                            |       100 |       100 |       100 |       100 |</tspan>
<tspan x="10" y="1626">-------------------------------------|-----------|-----------|-----------|-----------|</tspan>
<tspan x="10" y="1642"></tspan>
<tspan x="10" y="1658">created coverage file:///home/travis/build/npmdoc/node-npmdoc-isomorphic-fetch/tmp/build/coverag\</tspan>
<tspan x="10" y="1674">e.html/index.html</tspan>
<tspan x="10" y="1690">merging file:///home/travis/build/npmdoc/node-npmdoc-isomorphic-fetch/tmp/build/test-report.json\</tspan>
<tspan x="10" y="1706"> to test-report</tspan>
<tspan x="10" y="1722"></tspan>
<tspan x="10" y="1738">-------------------------------------------------------</tspan>
<tspan x="10" y="1754">| test-report - buildNpmdoc - node - linux v7.8.0 - 2017-04-07T18:55:35.794Z</tspan>
<tspan x="10" y="1770">|   35206 ms            0 failed        6 passed      |</tspan>
<tspan x="10" y="1786">-------------------------------------------------------</tspan>
<tspan x="10" y="1802"></tspan>
<tspan x="10" y="1818">created test-report file:///home/travis/build/npmdoc/node-npmdoc-isomorphic-fetch/tmp/build/test\</tspan>
<tspan x="10" y="1834">-report.html</tspan>
<tspan x="10" y="1850"></tspan>
<tspan x="10" y="1866"></tspan>
<tspan x="10" y="1882">npmTest - 0 failed tests</tspan>
<tspan x="10" y="1898"></tspan>
<tspan x="10" y="1914"></tspan>
<tspan x="10" y="1930">[MODE_BUILD=npmTest] - 2017-04-07T18:56:13Z - EXIT_CODE - 0</tspan>
</text>
</svg>
