<svg height="2318" width="720" xmlns="http://www.w3.org/2000/svg">
<rect height="2318" fill="#555" width="720"></rect>
<text fill="#7f7" font-family="Courier New" font-size="12" xml:space="preserve">
<tspan x="10" y="26"></tspan>
<tspan x="10" y="42">&gt; npmdoc-isomorphic-fetch@0.0.1 test /home/travis/build/npmdoc/node-npmdoc-isomorphic-fetch</tspan>
<tspan x="10" y="58">&gt; (set -e; export PORT=$(utility2 shServerPortRandom); utility2 test test.js)</tspan>
<tspan x="10" y="74"></tspan>
<tspan x="10" y="90"></tspan>
<tspan x="10" y="106">[MODE_BUILD=npmTest] - 2017-03-25T11:35:00Z - npm-testing /home/travis/build/npmdoc/node-npmdoc-\</tspan>
<tspan x="10" y="122">isomorphic-fetch</tspan>
<tspan x="10" y="138"></tspan>
<tspan x="10" y="154"></tspan>
<tspan x="10" y="170">covering $ /home/travis/.nvm/versions/node/v7.7.4/bin/node /home/travis/build/npmdoc/node-npmdoc\</tspan>
<tspan x="10" y="186">-isomorphic-fetch/test.js</tspan>
<tspan x="10" y="202">merging file:///home/travis/build/npmdoc/node-npmdoc-isomorphic-fetch/tmp/build/test-report.json\</tspan>
<tspan x="10" y="218"> to test-report</tspan>
<tspan x="10" y="234">&gt; server listening on http-port 55107</tspan>
<tspan x="10" y="250">created apidoc file:///home/travis/build/npmdoc/node-npmdoc-isomorphic-fetch/tmp/build/apidoc.ht\</tspan>
<tspan x="10" y="266">ml</tspan>
<tspan x="10" y="282"></tspan>
<tspan x="10" y="298"></tspan>
<tspan x="10" y="314">browserTest - created electron entry-page /home/travis/build/npmdoc/node-npmdoc-isomorphic-fetch\</tspan>
<tspan x="10" y="330">/tmp/electron.15b053f85f50.0718732d4750d.html</tspan>
<tspan x="10" y="346"></tspan>
<tspan x="10" y="362">[node test-case 1 of 6 passed] - testCase_buildLib_default</tspan>
<tspan x="10" y="378">[node test-case 2 of 6 passed] - testCase_buildReadme_default</tspan>
<tspan x="10" y="394">[node test-case 3 of 6 passed] - testCase_buildTest_default</tspan>
<tspan x="10" y="410"></tspan>
<tspan x="10" y="426">browserTest - created electron entry-page /home/travis/build/npmdoc/node-npmdoc-isomorphic-fetch\</tspan>
<tspan x="10" y="442">/tmp/electron.15b053f86350.a23c1e7c8a895.html</tspan>
<tspan x="10" y="458"></tspan>
<tspan x="10" y="474">(node:5049) DeprecationWarning: node --debug is deprecated. Please use node --inspect instead.</tspan>
<tspan x="10" y="490">Xlib:  extension "RANDR" missing on display ":99.0".</tspan>
<tspan x="10" y="506">Xlib:  extension "RANDR" missing on display ":99.0".</tspan>
<tspan x="10" y="522">&gt; server listening on http-port 59727</tspan>
<tspan x="10" y="538"></tspan>
<tspan x="10" y="554">/home/travis/build/npmdoc/node-npmdoc-isomorphic-fetch/node_modules/utility2/lib.utility2.sh.htm\</tspan>
<tspan x="10" y="570">l.js</tspan>
<tspan x="10" y="586"> #1 Line too long.</tspan>
<tspan x="10" y="602">    process.stdout.write('export npm_package_' + key.replace((/\W/g), '_') + '=' + JSON.stringif\</tspan>
<tspan x="10" y="618">y(value) + ';'); // Line 1445, Pos 116</tspan>
<tspan x="10" y="634"></tspan>
<tspan x="10" y="650">merging file:///home/travis/build/npmdoc/node-npmdoc-isomorphic-fetch/tmp/build/test-report.json\</tspan>
<tspan x="10" y="666"> to test-report</tspan>
<tspan x="10" y="682">Xlib:  extension "RANDR" missing on display ":99.0".</tspan>
<tspan x="10" y="698">[5080:0325/113501:WARNING:audio_manager.cc(314)] Multiple instances of AudioManager detected</tspan>
<tspan x="10" y="714">[5080:0325/113501:WARNING:audio_manager.cc(275)] Multiple instances of AudioManager detected</tspan>
<tspan x="10" y="730"></tspan>
<tspan x="10" y="746">/home/travis/build/npmdoc/node-npmdoc-isomorphic-fetch/node_modules/utility2/lib.utility2.sh.htm\</tspan>
<tspan x="10" y="762">l.js</tspan>
<tspan x="10" y="778"> #1 Line too long.</tspan>
<tspan x="10" y="794">    process.stdout.write('export npm_package_' + key.replace((/\W/g), '_') + '=' + JSON.stringif\</tspan>
<tspan x="10" y="810">y(value) + ';'); // Line 1445, Pos 116</tspan>
<tspan x="10" y="826"></tspan>
<tspan x="10" y="842">[5106:0325/113501:ERROR:sandbox_linux.cc(343)] InitializeSandbox() called with multiple threads \</tspan>
<tspan x="10" y="858">in process gpu-process. </tspan>
<tspan x="10" y="874">merging file:///home/travis/build/npmdoc/node-npmdoc-isomorphic-fetch/tmp/build/test-report.json\</tspan>
<tspan x="10" y="890"> to test-report</tspan>
<tspan x="10" y="906">Xlib:  extension "RANDR" missing on display ":99.0".</tspan>
<tspan x="10" y="922">[5084:0325/113502:WARNING:audio_manager.cc(314)] Multiple instances of AudioManager detected</tspan>
<tspan x="10" y="938">[5084:0325/113502:WARNING:audio_manager.cc(275)] Multiple instances of AudioManager detected</tspan>
<tspan x="10" y="954">[5135:0325/113502:ERROR:sandbox_linux.cc(343)] InitializeSandbox() called with multiple threads \</tspan>
<tspan x="10" y="970">in process gpu-process. </tspan>
<tspan x="10" y="986">[5084:0325/113502:ERROR:browser_gpu_channel_host_factory.cc(131)] Failed to create channel.</tspan>
<tspan x="10" y="1002"></tspan>
<tspan x="10" y="1018">browserTest - opened url file:///home/travis/build/npmdoc/node-npmdoc-isomorphic-fetch/tmp/build\</tspan>
<tspan x="10" y="1034">/apidoc.html</tspan>
<tspan x="10" y="1050"></tspan>
<tspan x="10" y="1066"></tspan>
<tspan x="10" y="1082">browserTest - opened url http://127.0.0.1:55107?modeTest=1</tspan>
<tspan x="10" y="1098"></tspan>
<tspan x="10" y="1114">[5084:0325/113504:INFO:CONSOLE(203)] "----------|-----------|-----------|-----------|-----------\</tspan>
<tspan x="10" y="1130">|</tspan>
<tspan x="10" y="1146">File      |   % Stmts |% Branches |   % Funcs |   % Lines |</tspan>
<tspan x="10" y="1162">----------|-----------|-----------|-----------|-----------|</tspan>
<tspan x="10" y="1178">----------|-----------|-----------|-----------|-----------|</tspan>
<tspan x="10" y="1194">All files |       100 |       100 |       100 |       100 |</tspan>
<tspan x="10" y="1210">----------|-----------|-----------|-----------|-----------|</tspan>
<tspan x="10" y="1226">", source: file:///home/travis/build/npmdoc/node-npmdoc-isomorphic-fetch/tmp/electron.15b053f863\</tspan>
<tspan x="10" y="1242">50.a23c1e7c8a895.html (203)</tspan>
<tspan x="10" y="1258">[5084:0325/113504:INFO:CONSOLE(203)] "created coverage file:///tmp/build/coverage.html/index.htm\</tspan>
<tspan x="10" y="1274">l", source: file:///home/travis/build/npmdoc/node-npmdoc-isomorphic-fetch/tmp/electron.15b053f86\</tspan>
<tspan x="10" y="1290">350.a23c1e7c8a895.html (203)</tspan>
<tspan x="10" y="1306">[node test-case 4 of 6 passed] - testCase_buildApp_default</tspan>
<tspan x="10" y="1322"></tspan>
<tspan x="10" y="1338">browserTest - created screen-capture file:///home/travis/build/npmdoc/node-npmdoc-isomorphic-fet\</tspan>
<tspan x="10" y="1354">ch/tmp/build/screen-capture.npmTest.browser._2Fhome_2Ftravis_2Fbuild_2Fnpmdoc_2Fnode-npmdoc-isom\</tspan>
<tspan x="10" y="1370">orphic-fetch_2Ftmp_2Fbuild_2Fapidoc.html.png</tspan>
<tspan x="10" y="1386"></tspan>
<tspan x="10" y="1402"></tspan>
<tspan x="10" y="1418">browserTest - exit-code 0 - file:///home/travis/build/npmdoc/node-npmdoc-isomorphic-fetch/tmp/bu\</tspan>
<tspan x="10" y="1434">ild/apidoc.html</tspan>
<tspan x="10" y="1450"></tspan>
<tspan x="10" y="1466">[node test-case 5 of 6 passed] - testCase_buildApidoc_default</tspan>
<tspan x="10" y="1482"></tspan>
<tspan x="10" y="1498">browserTest - created screen-capture file:///home/travis/build/npmdoc/node-npmdoc-isomorphic-fet\</tspan>
<tspan x="10" y="1514">ch/tmp/build/screen-capture.npmTest.browser..png</tspan>
<tspan x="10" y="1530"></tspan>
<tspan x="10" y="1546"></tspan>
<tspan x="10" y="1562">browserTest - exit-code 0 - http://127.0.0.1:55107?modeTest=1</tspan>
<tspan x="10" y="1578"></tspan>
<tspan x="10" y="1594"></tspan>
<tspan x="10" y="1610">browserTest - merged coverage from /home/travis/build/npmdoc/node-npmdoc-isomorphic-fetch/tmp/co\</tspan>
<tspan x="10" y="1626">verage.npmTest.browser.%2F.json</tspan>
<tspan x="10" y="1642"></tspan>
<tspan x="10" y="1658"></tspan>
<tspan x="10" y="1674">browserTest - merging test-report from /home/travis/build/npmdoc/node-npmdoc-isomorphic-fetch/tm\</tspan>
<tspan x="10" y="1690">p/test-report.npmTest.browser.%2F.json</tspan>
<tspan x="10" y="1706"></tspan>
<tspan x="10" y="1722">[node test-case 6 of 6 passed] - testCase_webpage_default</tspan>
<tspan x="10" y="1738">-------------------------------------|-----------|-----------|-----------|-----------|</tspan>
<tspan x="10" y="1754">File                                 |   % Stmts |% Branches |   % Funcs |   % Lines |</tspan>
<tspan x="10" y="1770">-------------------------------------|-----------|-----------|-----------|-----------|</tspan>
<tspan x="10" y="1786">   node-npmdoc-isomorphic-fetch/     |       100 |       100 |       100 |       100 |</tspan>
<tspan x="10" y="1802">      example.js                     |       100 |       100 |       100 |       100 |</tspan>
<tspan x="10" y="1818">      lib.npmdoc_isomorphic_fetch.js |       100 |       100 |       100 |       100 |</tspan>
<tspan x="10" y="1834">      test.js                        |       100 |       100 |       100 |       100 |</tspan>
<tspan x="10" y="1850">-------------------------------------|-----------|-----------|-----------|-----------|</tspan>
<tspan x="10" y="1866">All files                            |       100 |       100 |       100 |       100 |</tspan>
<tspan x="10" y="1882">-------------------------------------|-----------|-----------|-----------|-----------|</tspan>
<tspan x="10" y="1898"></tspan>
<tspan x="10" y="1914">created coverage file:///home/travis/build/npmdoc/node-npmdoc-isomorphic-fetch/tmp/build/coverag\</tspan>
<tspan x="10" y="1930">e.html/index.html</tspan>
<tspan x="10" y="1946"></tspan>
<tspan x="10" y="1962">/home/travis/build/npmdoc/node-npmdoc-isomorphic-fetch/node_modules/utility2/lib.utility2.sh.htm\</tspan>
<tspan x="10" y="1978">l.js</tspan>
<tspan x="10" y="1994"> #1 Line too long.</tspan>
<tspan x="10" y="2010">    process.stdout.write('export npm_package_' + key.replace((/\W/g), '_') + '=' + JSON.stringif\</tspan>
<tspan x="10" y="2026">y(value) + ';'); // Line 1445, Pos 116</tspan>
<tspan x="10" y="2042"></tspan>
<tspan x="10" y="2058">merging file:///home/travis/build/npmdoc/node-npmdoc-isomorphic-fetch/tmp/build/test-report.json\</tspan>
<tspan x="10" y="2074"> to test-report</tspan>
<tspan x="10" y="2090"></tspan>
<tspan x="10" y="2106">-------------------------------------------------------</tspan>
<tspan x="10" y="2122">| test-report - buildNpmdoc - node - linux v7.7.4 - 2017-03-25T11:34:50.107Z</tspan>
<tspan x="10" y="2138">|   16113 ms            0 failed        6 passed      |</tspan>
<tspan x="10" y="2154">-------------------------------------------------------</tspan>
<tspan x="10" y="2170"></tspan>
<tspan x="10" y="2186">created test-report file:///home/travis/build/npmdoc/node-npmdoc-isomorphic-fetch/tmp/build/test\</tspan>
<tspan x="10" y="2202">-report.html</tspan>
<tspan x="10" y="2218"></tspan>
<tspan x="10" y="2234"></tspan>
<tspan x="10" y="2250">npmTest - 0 failed tests</tspan>
<tspan x="10" y="2266"></tspan>
<tspan x="10" y="2282"></tspan>
<tspan x="10" y="2298">[MODE_BUILD=npmTest] - 2017-03-25T11:35:09Z - EXIT_CODE - 0</tspan>
</text>
</svg>
